<?xml version="1.0" encoding="UTF-8"?>
<svg width="512" height="512" viewBox="0 0 512 512" xmlns="http://www.w3.org/2000/svg">
  <!-- White square background -->
  <rect width="512" height="512" fill="#FFFFFF"/>
  
  <!-- Centered logo - scaled to fit nicely with padding -->
  <!-- Original logo is 266x279, scaling to ~1.5x and centering -->
  <g transform="translate(56.5, 46.75) scale(1.5)">
    <g transform="translate(0.000000,279.000000) scale(0.100000,-0.100000)" fill="#000000" stroke="none">
      <path d="M1350 2055 c-36 2 -82 0 -103 -5 -20 -5 -61 -22 -90 -36 -37 -19
-111 -85 -262 -235 -116 -115 -215 -209 -220 -209 -6 0 -99 89 -208 198 l-198
197 -90 -94 -91 -94 513 -512 c483 -482 518 -514 574 -536 46 -18 80 -23 150
-24 81 0 97 3 159 33 61 29 96 59 281 242 116 116 215 210 220 210 6 0 95 -85
198 -190 103 -104 192 -192 197 -195 5 -3 51 35 102 85 l92 91 -485 485 c-273
273 -509 502 -542 524 -32 22 -75 44 -95 50 -20 6 -66 13 -102 15z m14 -267
c16 -4 38 -15 48 -25 11 -10 96 -92 190 -182 93 -90 174 -173 180 -184 9 -17
-13 -43 -183 -213 -107 -107 -209 -201 -227 -210 -23 -11 -46 -14 -70 -9 -31
5 -70 39 -234 203 -109 108 -198 201 -198 207 0 6 91 102 203 212 158 157 209
202 232 205 17 2 43 0 59 -4z"/>
    </g>
  </g>
</svg>
